<mxfile host="app.diagrams.net" agent="Mozilla/5.0 (Windows NT 10.0; Win64; x64) AppleWebKit/537.36 (KHTML, like Gecko) Chrome/127.0.0.0 Safari/537.36 OPR/113.0.0.0" version="24.8.0">
  <diagram name="Página-1" id="OI2_72WPpLuLD4g8K_rf">
    <mxGraphModel dx="1364" dy="884" grid="1" gridSize="10" guides="1" tooltips="1" connect="1" arrows="1" fold="1" page="1" pageScale="1" pageWidth="827" pageHeight="1169" math="0" shadow="0">
      <root>
        <mxCell id="0" />
        <mxCell id="1" parent="0" />
        <mxCell id="Dc7wzzg82mR3qbJvhs6L-26" style="edgeStyle=orthogonalEdgeStyle;rounded=0;orthogonalLoop=1;jettySize=auto;html=1;exitX=1;exitY=0.5;exitDx=0;exitDy=0;entryX=0;entryY=0.25;entryDx=0;entryDy=0;" edge="1" parent="1" source="Dc7wzzg82mR3qbJvhs6L-1" target="Dc7wzzg82mR3qbJvhs6L-7">
          <mxGeometry relative="1" as="geometry" />
        </mxCell>
        <mxCell id="Dc7wzzg82mR3qbJvhs6L-1" value="A2" style="whiteSpace=wrap;html=1;aspect=fixed;" vertex="1" parent="1">
          <mxGeometry x="280" y="360" width="80" height="80" as="geometry" />
        </mxCell>
        <mxCell id="Dc7wzzg82mR3qbJvhs6L-2" value="A1" style="whiteSpace=wrap;html=1;aspect=fixed;" vertex="1" parent="1">
          <mxGeometry x="280" y="480" width="80" height="80" as="geometry" />
        </mxCell>
        <mxCell id="Dc7wzzg82mR3qbJvhs6L-28" style="edgeStyle=orthogonalEdgeStyle;rounded=0;orthogonalLoop=1;jettySize=auto;html=1;exitX=1;exitY=0.5;exitDx=0;exitDy=0;entryX=0;entryY=0.5;entryDx=0;entryDy=0;" edge="1" parent="1" source="Dc7wzzg82mR3qbJvhs6L-4" target="Dc7wzzg82mR3qbJvhs6L-7">
          <mxGeometry relative="1" as="geometry" />
        </mxCell>
        <mxCell id="Dc7wzzg82mR3qbJvhs6L-4" value="A0" style="whiteSpace=wrap;html=1;aspect=fixed;" vertex="1" parent="1">
          <mxGeometry x="280" y="600" width="80" height="80" as="geometry" />
        </mxCell>
        <mxCell id="Dc7wzzg82mR3qbJvhs6L-7" value="COUNTER&lt;div&gt;&lt;br&gt;&lt;/div&gt;" style="whiteSpace=wrap;html=1;aspect=fixed;" vertex="1" parent="1">
          <mxGeometry x="480" y="440" width="200" height="200" as="geometry" />
        </mxCell>
        <mxCell id="Dc7wzzg82mR3qbJvhs6L-8" value="STEP" style="whiteSpace=wrap;html=1;aspect=fixed;" vertex="1" parent="1">
          <mxGeometry x="760" y="440" width="200" height="200" as="geometry" />
        </mxCell>
        <mxCell id="Dc7wzzg82mR3qbJvhs6L-9" value="" style="endArrow=classic;html=1;rounded=0;" edge="1" parent="1">
          <mxGeometry relative="1" as="geometry">
            <mxPoint x="519.29" y="340" as="sourcePoint" />
            <mxPoint x="519.29" y="430" as="targetPoint" />
          </mxGeometry>
        </mxCell>
        <mxCell id="Dc7wzzg82mR3qbJvhs6L-10" value="UP/DW" style="edgeLabel;resizable=0;html=1;;align=center;verticalAlign=middle;" connectable="0" vertex="1" parent="Dc7wzzg82mR3qbJvhs6L-9">
          <mxGeometry relative="1" as="geometry" />
        </mxCell>
        <mxCell id="Dc7wzzg82mR3qbJvhs6L-11" value="" style="endArrow=none;html=1;rounded=0;" edge="1" parent="1">
          <mxGeometry width="50" height="50" relative="1" as="geometry">
            <mxPoint x="480" y="415" as="sourcePoint" />
            <mxPoint x="560" y="385" as="targetPoint" />
          </mxGeometry>
        </mxCell>
        <mxCell id="Dc7wzzg82mR3qbJvhs6L-12" value="1 Bit" style="text;html=1;align=center;verticalAlign=middle;whiteSpace=wrap;rounded=0;" vertex="1" parent="1">
          <mxGeometry x="520" y="390" width="60" height="30" as="geometry" />
        </mxCell>
        <mxCell id="Dc7wzzg82mR3qbJvhs6L-16" value="" style="endArrow=classic;html=1;rounded=0;" edge="1" parent="1">
          <mxGeometry relative="1" as="geometry">
            <mxPoint x="879.29" y="340" as="sourcePoint" />
            <mxPoint x="879.29" y="430" as="targetPoint" />
          </mxGeometry>
        </mxCell>
        <mxCell id="Dc7wzzg82mR3qbJvhs6L-17" value="Step" style="edgeLabel;resizable=0;html=1;;align=center;verticalAlign=middle;" connectable="0" vertex="1" parent="Dc7wzzg82mR3qbJvhs6L-16">
          <mxGeometry relative="1" as="geometry" />
        </mxCell>
        <mxCell id="Dc7wzzg82mR3qbJvhs6L-18" value="" style="endArrow=none;html=1;rounded=0;" edge="1" parent="1">
          <mxGeometry width="50" height="50" relative="1" as="geometry">
            <mxPoint x="840" y="415" as="sourcePoint" />
            <mxPoint x="920" y="385" as="targetPoint" />
          </mxGeometry>
        </mxCell>
        <mxCell id="Dc7wzzg82mR3qbJvhs6L-19" value="A0" style="text;html=1;align=center;verticalAlign=middle;whiteSpace=wrap;rounded=0;" vertex="1" parent="1">
          <mxGeometry x="880" y="390" width="60" height="30" as="geometry" />
        </mxCell>
        <mxCell id="Dc7wzzg82mR3qbJvhs6L-20" value="" style="endArrow=classic;html=1;rounded=0;" edge="1" parent="1">
          <mxGeometry relative="1" as="geometry">
            <mxPoint x="639.29" y="340" as="sourcePoint" />
            <mxPoint x="639.29" y="430" as="targetPoint" />
          </mxGeometry>
        </mxCell>
        <mxCell id="Dc7wzzg82mR3qbJvhs6L-21" value="LOAD" style="edgeLabel;resizable=0;html=1;;align=center;verticalAlign=middle;" connectable="0" vertex="1" parent="Dc7wzzg82mR3qbJvhs6L-20">
          <mxGeometry relative="1" as="geometry" />
        </mxCell>
        <mxCell id="Dc7wzzg82mR3qbJvhs6L-22" value="" style="endArrow=none;html=1;rounded=0;" edge="1" parent="1">
          <mxGeometry width="50" height="50" relative="1" as="geometry">
            <mxPoint x="600" y="415" as="sourcePoint" />
            <mxPoint x="680" y="385" as="targetPoint" />
          </mxGeometry>
        </mxCell>
        <mxCell id="Dc7wzzg82mR3qbJvhs6L-23" value="A2,A1,A0" style="text;html=1;align=center;verticalAlign=middle;whiteSpace=wrap;rounded=0;" vertex="1" parent="1">
          <mxGeometry x="640" y="390" width="60" height="30" as="geometry" />
        </mxCell>
        <mxCell id="Dc7wzzg82mR3qbJvhs6L-25" value="" style="endArrow=classic;html=1;rounded=0;" edge="1" parent="1">
          <mxGeometry width="50" height="50" relative="1" as="geometry">
            <mxPoint x="680" y="530" as="sourcePoint" />
            <mxPoint x="750" y="530" as="targetPoint" />
          </mxGeometry>
        </mxCell>
        <mxCell id="Dc7wzzg82mR3qbJvhs6L-27" style="edgeStyle=orthogonalEdgeStyle;rounded=0;orthogonalLoop=1;jettySize=auto;html=1;exitX=1;exitY=0.5;exitDx=0;exitDy=0;entryX=0.015;entryY=0.399;entryDx=0;entryDy=0;entryPerimeter=0;" edge="1" parent="1" source="Dc7wzzg82mR3qbJvhs6L-2" target="Dc7wzzg82mR3qbJvhs6L-7">
          <mxGeometry relative="1" as="geometry" />
        </mxCell>
        <mxCell id="Dc7wzzg82mR3qbJvhs6L-65" style="edgeStyle=orthogonalEdgeStyle;rounded=0;orthogonalLoop=1;jettySize=auto;html=1;exitX=0.5;exitY=1;exitDx=0;exitDy=0;" edge="1" parent="1" source="Dc7wzzg82mR3qbJvhs6L-34">
          <mxGeometry relative="1" as="geometry">
            <mxPoint x="1141.1538461538462" y="700" as="targetPoint" />
          </mxGeometry>
        </mxCell>
        <mxCell id="Dc7wzzg82mR3qbJvhs6L-68" style="edgeStyle=orthogonalEdgeStyle;rounded=0;orthogonalLoop=1;jettySize=auto;html=1;exitX=1;exitY=0.5;exitDx=0;exitDy=0;entryX=0.5;entryY=1;entryDx=0;entryDy=0;" edge="1" parent="1" source="Dc7wzzg82mR3qbJvhs6L-34" target="Dc7wzzg82mR3qbJvhs6L-63">
          <mxGeometry relative="1" as="geometry" />
        </mxCell>
        <mxCell id="Dc7wzzg82mR3qbJvhs6L-34" value="Comparador" style="whiteSpace=wrap;html=1;aspect=fixed;" vertex="1" parent="1">
          <mxGeometry x="1041" y="440" width="200" height="200" as="geometry" />
        </mxCell>
        <mxCell id="Dc7wzzg82mR3qbJvhs6L-38" value="" style="endArrow=classic;html=1;rounded=0;" edge="1" parent="1">
          <mxGeometry width="50" height="50" relative="1" as="geometry">
            <mxPoint x="961" y="530" as="sourcePoint" />
            <mxPoint x="1031" y="530" as="targetPoint" />
          </mxGeometry>
        </mxCell>
        <mxCell id="Dc7wzzg82mR3qbJvhs6L-41" value="" style="endArrow=classic;html=1;rounded=0;" edge="1" parent="1">
          <mxGeometry relative="1" as="geometry">
            <mxPoint x="1080.29" y="340" as="sourcePoint" />
            <mxPoint x="1080.29" y="430" as="targetPoint" />
          </mxGeometry>
        </mxCell>
        <mxCell id="Dc7wzzg82mR3qbJvhs6L-61" value="Lim Máx" style="edgeLabel;html=1;align=center;verticalAlign=middle;resizable=0;points=[];" vertex="1" connectable="0" parent="Dc7wzzg82mR3qbJvhs6L-41">
          <mxGeometry x="0.0089" y="1" relative="1" as="geometry">
            <mxPoint as="offset" />
          </mxGeometry>
        </mxCell>
        <mxCell id="Dc7wzzg82mR3qbJvhs6L-43" value="" style="endArrow=none;html=1;rounded=0;" edge="1" parent="1">
          <mxGeometry width="50" height="50" relative="1" as="geometry">
            <mxPoint x="1041" y="415" as="sourcePoint" />
            <mxPoint x="1121" y="385" as="targetPoint" />
          </mxGeometry>
        </mxCell>
        <mxCell id="Dc7wzzg82mR3qbJvhs6L-44" value="X Bit" style="text;html=1;align=center;verticalAlign=middle;whiteSpace=wrap;rounded=0;" vertex="1" parent="1">
          <mxGeometry x="1081" y="390" width="60" height="30" as="geometry" />
        </mxCell>
        <mxCell id="Dc7wzzg82mR3qbJvhs6L-45" value="" style="endArrow=classic;html=1;rounded=0;" edge="1" parent="1">
          <mxGeometry relative="1" as="geometry">
            <mxPoint x="1200.29" y="340" as="sourcePoint" />
            <mxPoint x="1200.29" y="430" as="targetPoint" />
          </mxGeometry>
        </mxCell>
        <mxCell id="Dc7wzzg82mR3qbJvhs6L-62" value="Lim Min" style="edgeLabel;html=1;align=center;verticalAlign=middle;resizable=0;points=[];" vertex="1" connectable="0" parent="Dc7wzzg82mR3qbJvhs6L-45">
          <mxGeometry x="-0.0266" y="-3" relative="1" as="geometry">
            <mxPoint as="offset" />
          </mxGeometry>
        </mxCell>
        <mxCell id="Dc7wzzg82mR3qbJvhs6L-47" value="" style="endArrow=none;html=1;rounded=0;" edge="1" parent="1">
          <mxGeometry width="50" height="50" relative="1" as="geometry">
            <mxPoint x="1161" y="415" as="sourcePoint" />
            <mxPoint x="1241" y="385" as="targetPoint" />
          </mxGeometry>
        </mxCell>
        <mxCell id="Dc7wzzg82mR3qbJvhs6L-48" value="X bit" style="text;html=1;align=center;verticalAlign=middle;whiteSpace=wrap;rounded=0;" vertex="1" parent="1">
          <mxGeometry x="1201" y="390" width="60" height="30" as="geometry" />
        </mxCell>
        <mxCell id="Dc7wzzg82mR3qbJvhs6L-59" value="Registradores" style="rounded=1;whiteSpace=wrap;html=1;" vertex="1" parent="1">
          <mxGeometry x="510" y="260" width="720" height="60" as="geometry" />
        </mxCell>
        <mxCell id="Dc7wzzg82mR3qbJvhs6L-63" value="" style="rounded=0;whiteSpace=wrap;html=1;rotation=90;" vertex="1" parent="1">
          <mxGeometry x="1304" y="420" width="350" height="240" as="geometry" />
        </mxCell>
        <mxCell id="Dc7wzzg82mR3qbJvhs6L-64" style="edgeStyle=orthogonalEdgeStyle;rounded=0;orthogonalLoop=1;jettySize=auto;html=1;exitX=0.5;exitY=1;exitDx=0;exitDy=0;entryX=0.4;entryY=1;entryDx=0;entryDy=0;entryPerimeter=0;" edge="1" parent="1" target="Dc7wzzg82mR3qbJvhs6L-7">
          <mxGeometry relative="1" as="geometry">
            <mxPoint x="1141" y="700" as="sourcePoint" />
            <mxPoint x="570" y="700.4000000000001" as="targetPoint" />
          </mxGeometry>
        </mxCell>
        <mxCell id="Dc7wzzg82mR3qbJvhs6L-66" value="Displays 7&lt;div&gt;&amp;nbsp;Segmentos&lt;div&gt;&lt;br&gt;&lt;/div&gt;&lt;/div&gt;" style="text;html=1;align=center;verticalAlign=middle;resizable=0;points=[];autosize=1;strokeColor=none;fillColor=none;" vertex="1" parent="1">
          <mxGeometry x="1440" y="510" width="90" height="60" as="geometry" />
        </mxCell>
        <mxCell id="Dc7wzzg82mR3qbJvhs6L-67" style="edgeStyle=orthogonalEdgeStyle;rounded=0;orthogonalLoop=1;jettySize=auto;html=1;exitX=1;exitY=0.25;exitDx=0;exitDy=0;entryX=0.22;entryY=1.01;entryDx=0;entryDy=0;entryPerimeter=0;" edge="1" parent="1" source="Dc7wzzg82mR3qbJvhs6L-34" target="Dc7wzzg82mR3qbJvhs6L-63">
          <mxGeometry relative="1" as="geometry" />
        </mxCell>
        <mxCell id="Dc7wzzg82mR3qbJvhs6L-69" style="edgeStyle=orthogonalEdgeStyle;rounded=0;orthogonalLoop=1;jettySize=auto;html=1;exitX=1;exitY=0.75;exitDx=0;exitDy=0;entryX=0.795;entryY=0.981;entryDx=0;entryDy=0;entryPerimeter=0;" edge="1" parent="1" source="Dc7wzzg82mR3qbJvhs6L-34" target="Dc7wzzg82mR3qbJvhs6L-63">
          <mxGeometry relative="1" as="geometry" />
        </mxCell>
      </root>
    </mxGraphModel>
  </diagram>
</mxfile>
